<svg width="32" height="32" viewBox="0 0 32 32" fill="none" xmlns="http://www.w3.org/2000/svg">
<path d="M5.33398 25.3334V13.3334C5.33398 12.9111 5.42865 12.5111 5.61798 12.1334C5.80732 11.7556 6.06821 11.4445 6.40065 11.2L14.4007 5.20002C14.8673 4.84446 15.4007 4.66669 16.0007 4.66669C16.6007 4.66669 17.134 4.84446 17.6006 5.20002L25.6007 11.2C25.934 11.4445 26.1953 11.7556 26.3846 12.1334C26.574 12.5111 26.6682 12.9111 26.6673 13.3334V25.3334C26.6673 26.0667 26.406 26.6947 25.8833 27.2174C25.3607 27.74 24.7331 28.0009 24.0007 28H20.0007C19.6229 28 19.3064 27.872 19.0513 27.616C18.7962 27.36 18.6682 27.0436 18.6673 26.6667V20C18.6673 19.6222 18.5393 19.3058 18.2833 19.0507C18.0273 18.7956 17.7109 18.6676 17.334 18.6667H14.6673C14.2895 18.6667 13.9731 18.7947 13.718 19.0507C13.4629 19.3067 13.3349 19.6231 13.334 20V26.6667C13.334 27.0445 13.206 27.3614 12.95 27.6174C12.694 27.8734 12.3775 28.0009 12.0007 28H8.00065C7.26732 28 6.63976 27.7391 6.11798 27.2174C5.59621 26.6956 5.33487 26.0676 5.33398 25.3334Z" fill="#F2F2F2"/>
</svg>
