<svg width="32" height="32" viewBox="0 0 32 32" fill="none" xmlns="http://www.w3.org/2000/svg">
<path d="M29.3327 22.204C29.3327 22.5373 29.2661 22.8707 29.1327 23.1773C29.0038 23.4846 28.8183 23.765 28.5861 24.004C28.3447 24.232 28.0647 24.4173 27.7594 24.5507C27.4463 24.6781 27.1108 24.7416 26.7727 24.7373C25.2637 24.7118 23.7566 24.8549 22.2794 25.164C20.5289 25.3705 18.8425 25.9477 17.3327 26.8573V6.97734C18.7874 6.28401 20.3461 5.83334 21.9461 5.64401C23.5745 5.32077 25.2328 5.17326 26.8927 5.20401C27.554 5.24071 28.1752 5.53224 28.6261 6.01734C29.0661 6.48667 29.3101 7.10667 29.3061 7.75067L29.3327 22.204ZM14.6661 6.97734V26.8573C13.1812 25.9565 11.5227 25.3795 9.79939 25.164C8.29444 24.8596 6.76133 24.7166 5.22606 24.7373C4.88801 24.7416 4.55253 24.6781 4.23939 24.5507C3.93482 24.4167 3.65528 24.2318 3.41272 24.004C3.17497 23.7695 2.98878 23.4879 2.86606 23.1773C2.73222 22.8704 2.66409 22.5388 2.66606 22.204V7.67067C2.66816 7.02792 2.9145 6.40999 3.35518 5.94208C3.79585 5.47417 4.39792 5.19126 5.03939 5.15067C6.73499 5.10781 8.43005 5.2554 10.0927 5.59067C11.6843 5.79247 13.2304 6.26127 14.6661 6.97734Z" fill="#F2F2F2"/>
</svg>
