<svg width="33" height="32" viewBox="0 0 33 32" fill="none" xmlns="http://www.w3.org/2000/svg">
<path fill-rule="evenodd" clip-rule="evenodd" d="M13.4427 3.21204C12.5 4.04804 12.5 5.57738 12.5 8.63471V23.3654C12.5 26.4227 12.5 27.952 13.4427 28.788C14.3853 29.624 15.8267 29.3734 18.7093 28.8707L21.816 28.3294C25.008 27.772 26.604 27.4934 27.552 26.3227C28.5 25.1507 28.5 23.4574 28.5 20.0694V11.9307C28.5 8.54404 28.5 6.85071 27.5533 5.67871C26.604 4.50804 25.0067 4.22938 21.8147 3.67338L18.7107 3.13071C15.828 2.62804 14.3867 2.37738 13.444 3.21338M16.5 13.5587C17.052 13.5587 17.5 14.0267 17.5 14.604V17.396C17.5 17.9734 17.052 18.4414 16.5 18.4414C15.948 18.4414 15.5 17.9734 15.5 17.396V14.604C15.5 14.0267 15.948 13.5587 16.5 13.5587Z" fill="#F2F2F2"/>
<path d="M10.5627 6C7.81867 6.004 6.388 6.064 5.476 6.976C4.5 7.952 4.5 9.52267 4.5 12.6667V19.3333C4.5 22.476 4.5 24.0467 5.476 25.024C6.388 25.9347 7.81867 25.996 10.5627 26C10.5 25.168 10.5 24.208 10.5 23.1693V8.83067C10.5 7.79067 10.5 6.83067 10.5627 6Z" fill="#F2F2F2"/>
</svg>
