<svg width="32" height="32" viewBox="0 0 32 32" fill="none" xmlns="http://www.w3.org/2000/svg">
<path d="M11.4672 12.8C12.0005 13.6 12.6672 14.2667 13.6005 14.6667H18.9339C19.3339 14.5333 19.6005 14.2667 19.8672 14C21.2005 12.6667 21.7339 10.6667 21.0672 8.93334L20.9339 8.66668C20.8005 8.26668 20.5339 8.00001 20.2672 7.73334C20.1339 7.46668 19.8672 7.33334 19.7339 7.06668C19.2005 6.66668 18.6672 6.26668 18.1339 5.73334C16.9339 4.53334 16.8005 2.66668 17.4672 1.33334C16.8005 1.46668 16.1339 1.86668 15.6005 2.40001C13.6005 4.00001 12.8005 6.80001 13.7339 9.33334V9.60001C13.7339 9.73334 13.6005 9.86668 13.4672 10C13.3339 10.1333 13.0672 10 12.9339 9.86668L12.8005 9.73334C12.0005 8.66668 11.8672 7.06668 12.4005 5.73334C11.2005 6.80001 10.5339 8.53334 10.6672 10.2667C10.6672 10.6667 10.8005 11.0667 10.9339 11.4667C10.9339 11.8667 11.2005 12.4 11.4672 12.8ZM16.4005 10.8C16.5339 10.1333 16.2672 9.60001 16.1339 9.06668C16.0005 8.53334 16.0005 8.00001 16.2672 7.46668L16.6672 8.26668C17.2005 9.06668 18.1339 9.33334 18.4005 10.4V10.8C18.4005 11.4667 18.1339 12.1333 17.7339 12.5333C17.4672 12.6667 17.2005 12.9333 16.9339 12.9333C16.1339 13.2 15.2005 12.8 14.6672 12.2667C15.7339 12.2667 16.2672 11.4667 16.4005 10.8ZM20.0005 16V18.6667H18.6672L17.3339 29.3333H14.6672L13.3339 18.6667H12.0005V16H20.0005Z" fill="#F2F2F2"/>
</svg>
