<svg width="32" height="32" viewBox="0 0 32 32" fill="none" xmlns="http://www.w3.org/2000/svg">
<path d="M29.3327 18.6667V13.3333C29.3327 12.0907 29.3327 11.4693 29.13 10.98C28.996 10.6563 28.7995 10.3621 28.5517 10.1143C28.3039 9.86654 28.0098 9.67003 27.686 9.53601C27.1967 9.33334 26.5753 9.33334 25.3327 9.33334C24.09 9.33334 23.4687 9.33334 22.9793 9.53601C22.6556 9.67003 22.3614 9.86654 22.1136 10.1143C21.8659 10.3621 21.6694 10.6563 21.5353 10.98C21.3327 11.4693 21.3327 12.7573 21.3327 14H10.666C10.666 12.7573 10.666 11.4693 10.4633 10.98C10.3293 10.6563 10.1328 10.3621 9.88505 10.1143C9.63728 9.86654 9.34311 9.67003 9.01935 9.53601C8.53001 9.33334 7.90868 9.33334 6.66602 9.33334C5.42335 9.33334 4.80202 9.33334 4.31268 9.53601C3.98892 9.67003 3.69475 9.86654 3.44698 10.1143C3.19921 10.3621 3.0027 10.6563 2.86868 10.98C2.66602 11.4693 2.66602 12.0907 2.66602 13.3333V18.6667C2.66602 19.9093 2.66602 20.5307 2.86868 21.02C3.0027 21.3438 3.19921 21.6379 3.44698 21.8857C3.69475 22.1335 3.98892 22.33 4.31268 22.464C4.80202 22.6667 5.42335 22.6667 6.66602 22.6667C7.90868 22.6667 8.53001 22.6667 9.01935 22.464C9.34311 22.33 9.63728 22.1335 9.88505 21.8857C10.1328 21.6379 10.3293 21.3438 10.4633 21.02C10.666 20.5307 10.666 19.2427 10.666 18H21.3327C21.3327 19.2427 21.3327 20.5307 21.5353 21.02C21.6694 21.3438 21.8659 21.6379 22.1136 21.8857C22.3614 22.1335 22.6556 22.33 22.9793 22.464C23.4687 22.6667 24.09 22.6667 25.3327 22.6667C26.5753 22.6667 27.1967 22.6667 27.686 22.464C28.0098 22.33 28.3039 22.1335 28.5517 21.8857C28.7995 21.6379 28.996 21.3438 29.13 21.02C29.3327 20.5307 29.3327 19.9093 29.3327 18.6667Z" fill="#F2F2F2"/>
</svg>
