<?xml version="1.0" encoding="UTF-8"?>
<!DOCTYPE svg PUBLIC "-//W3C//DTD SVG 1.1//EN" "http://www.w3.org/Graphics/SVG/1.1/DTD/svg11.dtd">
<!-- Creator: CorelDRAW 2019 (64-Bit) -->
<svg xmlns="http://www.w3.org/2000/svg" xml:space="preserve" width="67.6838mm" height="45.3549mm" version="1.1" style="shape-rendering:geometricPrecision; text-rendering:geometricPrecision; image-rendering:optimizeQuality; fill-rule:evenodd; clip-rule:evenodd"
viewBox="0 0 863.5 578.63"
 xmlns:xlink="http://www.w3.org/1999/xlink"
 xmlns:xodm="http://www.corel.com/coreldraw/odm/2003">
 <defs>
  <style type="text/css">
   <![CDATA[
    .fil0 {fill:none}
    .fil1 {fill:#FFFFFF}
    .fil2 {fill:#5197C4;fill-rule:nonzero}
    .fil3 {fill:#FFFFFF;fill-rule:nonzero}
   ]]>
  </style>
 </defs>
 <g id="Слой_x0020_1">
  <metadata id="CorelCorpID_0Corel-Layer"/>
  <rect class="fil0" x="-0" y="-0" width="863.5" height="578.63"/>
  <path class="fil1" d="M463.88 190.07l8.75 23.88 34.75 0.14 -64.33 -161.61 -17.83 -0.07 -66.59 161.07 34.7 0.14 8.95 -23.81 61.6 0.26zm-25.46 -69.62l15.09 40.76 -40.63 -0.17 20.54 -54.08 5 13.5z"/>
  <path class="fil2" d="M484.65 504.61l-0.7 -56.66 -22.74 0.33 0.7 56.66 22.74 -0.33zm31.33 -97.1l-23.14 -18.49 -4.79 17.83 23.14 18.49 4.79 -17.82zm-22.06 -46.79l45.89 36.66 -9.99 72 -65.6 -52.41 0.18 -15.92 -63.26 -0.21 0.21 16.41 -66.08 51.95 -9.17 -72.09 46.72 -36.72 -0.54 -5.87 26.02 0 2.99 23.59 64.78 0.21 2.71 -23.81 25.67 0 -0.51 6.22zm-129.3 -89.44l-3.02 -32.82 142.39 0.47 -2.68 32.35 -23.08 0 1.1 -9.69 -92.84 -0.3 1.26 10 -23.15 0zm8.51 117.85l-23.22 18.26 4.39 17.84 23.22 -18.25 -4.39 -17.85zm29.69 117.7l-0.7 -56.66 -22.74 0.33 0.7 56.66 22.74 -0.33zm40.82 19.06l-1.02 -103.45 -22.74 0.33 1.02 103.45 22.74 -0.33z"/>
  <path class="fil3" d="M252.82 145.88l43.9 0c37.25,0 37.47,54.98 0,54.98l-43.9 0 0 -54.98zm43.9 -27.93c-24.39,-0.22 -48.77,0 -73.16,0l0 155.41 29.26 0 0 -45.67 43.9 0c76.04,0 75.82,-109.74 0,-109.74z"/>
  <path class="fil3" d="M639.97 230.13c-10.2,10.2 -25.5,15.74 -39.02,15.74 -38.35,0 -53.21,-26.83 -53.43,-52.54 -0.22,-25.94 15.96,-53.87 53.43,-53.87 13.52,0 27.27,4.66 37.47,14.63l19.51 -18.84c-15.96,-15.74 -35.91,-23.72 -56.98,-23.72 -56.09,0 -82.47,41.24 -82.25,81.81 0.22,40.35 24.61,80.03 82.25,80.03 22.39,0 43.01,-7.32 58.97,-23.06l-19.95 -20.17z"/>
  <path class="fil1" d="M285.31 340l-10.33 0 0 -33.39 -14.36 19.12 -2.9 0 -14 -19.12 0 33.4 -11.41 0 0 -51.15 12.28 0 14.8 20.31 14.8 -20.31 12.21 0 0 51.15 -1.08 0zm38.13 -11.27l27.54 0 0 11.27 -38.88 0 0 -51.29 38.88 0 0 11.13 -27.54 0 0 9.19 26.56 0 0 10.78 -26.56 0 0 8.91zm104.93 11.27l-10.33 0 0 -33.39 -14.36 19.12 -2.9 0 -14 -19.12 0 33.4 -11.41 0 0 -51.15 12.28 0 14.8 20.31 14.8 -20.31 12.21 0 0 51.15 -1.08 0zm32.27 -44.81c4.36,-4.47 10.62,-7.39 18.8,-7.39l0.36 0.01c8.6,0.09 15.08,3.45 19.4,8.44 4.31,4.97 6.47,11.55 6.47,18.11l-0.01 0.32c-0.08,7.11 -2.48,14.24 -7.5,19.3 -4.3,4.33 -10.48,7.15 -18.73,7.15 -8.31,0 -14.58,-2.8 -18.92,-7.15 -4.99,-5.01 -7.39,-12.05 -7.39,-19.23 0,-7.18 2.48,-14.4 7.51,-19.55zm19.14 3.18l-0.85 0c-5.1,0.13 -8.73,2.23 -11.07,5.22 -2.37,3.02 -3.46,6.98 -3.46,10.76l0 0.5c0.11,4.19 1.39,8.53 4.32,11.57 2.36,2.45 5.85,4.06 10.72,4.06 4.87,0 8.36,-1.63 10.72,-4.09 2.92,-3.05 4.18,-7.41 4.26,-11.6l0 -0.35c0,-3.82 -1.07,-7.82 -3.45,-10.88 -2.34,-3.01 -5.99,-5.11 -11.18,-5.2zm81.58 23.79l13.95 15.73 0 2.12 -12.57 0 -14.3 -16.4 -7.33 0 0 16.4 -11.41 0 0 -51.29 8.86 0.02c5.18,0.01 10.36,0.03 15.55,-0.02 5.78,0.03 10.27,1.89 13.41,4.79 3.53,3.25 5.34,7.81 5.34,12.58 0,3.9 -0.98,7.83 -3.48,10.94 -1.82,2.26 -4.42,4.08 -8.01,5.13zm-1.93 -20.84c-1.18,-1.11 -2.93,-1.83 -5.31,-1.83l-13.01 0 0 13.61 13.01 0c2.4,0 4.15,-0.72 5.33,-1.82 1.37,-1.29 2,-3.13 2,-4.99 0,-1.85 -0.65,-3.69 -2.02,-4.98zm35.1 -12.61l11.61 0 11.89 19.34 12.43 -19.34 12.81 0 0 1.83 -19.55 28.42 0 21.04 -11.41 0 0 -21.05 -18.85 -28.42 0 -1.82 1.08 0z"/>
  <path class="fil3" d="M203.84 236.34c-11.75,-23.94 -36.8,-30.82 -60.97,-30.82 -28.6,0.22 -60.08,13.3 -60.08,45.23 0,34.81 29.26,43.23 60.97,47 20.62,2.22 35.92,8.2 35.92,22.84 0,16.85 -17.29,23.28 -35.69,23.28 -18.84,0 -36.8,-7.54 -43.67,-24.61l-24.39 12.64c11.53,28.38 35.91,38.13 67.62,38.13 34.58,0 65.18,-14.85 65.18,-49.44 0,-37.02 -30.15,-45.45 -62.52,-49.44 -18.62,-2.22 -34.59,-5.99 -34.59,-19.51 0,-11.53 10.42,-20.62 32.15,-20.62 16.85,0 31.48,8.43 36.8,17.29l23.28 -11.97z"/>
  <path class="fil3" d="M787.58 341.2l-87.13 0 0 -35.03 84.02 0 0 -27.27 -84.02 0 0 -35.91 87.13 0 0 -28.38 -116.17 0c0,51.8 0,103.75 0,155.41l116.17 0 0 -28.82z"/>
 </g>
</svg>
