<?xml version="1.0" encoding="UTF-8"?>
<svg width="48px" height="24px" viewBox="0 0 48 24" version="1.1" xmlns="http://www.w3.org/2000/svg" xmlns:xlink="http://www.w3.org/1999/xlink">
    <title>Pay online with imoje</title>
    <g id="Page-1" stroke="none" stroke-width="1" fill="none" fill-rule="evenodd">
        <g id="Artboard" transform="translate(-20.000000, -14.000000)" fill-rule="nonzero">
            <g id="Pay-online-with-imoje" transform="translate(20.059607, 14.077400)">
                <path d="M9.98163874,7.21287749 C11.3157592,7.21287749 12.5676335,7.80810785 13.121801,8.8753801 C13.9428168,7.80810785 15.2152827,7.21287749 16.5494031,7.21287749 C17.7192723,7.21287749 18.663356,7.62338534 19.2996492,8.32121257 C19.9974764,9.08057382 20.3053874,10.086312 20.3053874,11.6871602 L20.3053874,17.9265424 C20.3053874,18.1522073 20.2027906,18.2549246 19.9359424,18.2549246 L18.1914346,18.2549246 C17.945178,18.2549246 17.8424607,18.1522073 17.8424607,17.9265424 L17.8424607,12.4875843 C17.8424607,10.989333 17.7603351,10.4351654 17.3704188,9.98359476 C17.0625079,9.61414974 16.5083403,9.44989843 15.8721675,9.44989843 C15.3796545,9.44989843 14.7433613,9.61414974 14.3328534,9.90146911 C13.9223455,10.1887885 13.7991571,10.4761079 13.737623,11.112401 C13.6965602,11.6255058 13.7171518,12.4875843 13.7171518,13.4111969 L13.7171518,17.9265424 C13.7171518,18.1522073 13.614555,18.2549246 13.3682984,18.2549246 L11.603199,18.2549246 C11.3569424,18.2549246 11.2542251,18.1522073 11.2542251,17.9265424 L11.2542251,12.4875843 C11.2542251,10.989333 11.1720995,10.4351654 10.7821832,9.98359476 C10.4742723,9.61414974 9.92010471,9.44989843 9.28393194,9.44989843 C8.79141885,9.44989843 8.15512565,9.59355812 7.7446178,9.90146911 C7.37517277,10.1477257 7.21092147,10.4761079 7.16997906,11.112401 C7.12891623,11.6255058 7.12891623,12.4875843 7.12891623,13.4111969 L7.12891623,17.9265424 C7.12891623,18.1522073 7.02631937,18.2549246 6.78006283,18.2549246 L5.01496335,18.2549246 C4.76870681,18.2549246 4.66610995,18.1522073 4.66610995,17.9265424 L4.66610995,11.5024377 C4.66610995,9.77840105 4.56351309,8.0543644 4.56351309,7.74657382 C4.56351309,7.52078848 4.66610995,7.41819162 4.91236649,7.41819162 L6.49274346,7.41819162 C6.75959162,7.41819162 6.84159686,7.50031728 6.88265969,7.72610262 C6.92372251,7.93141675 6.96478534,8.25979895 6.98525654,8.56758953 C7.68296335,7.78751623 8.77070681,7.21287749 9.98163874,7.21287749 Z" id="Path" fill="#EC631C"/>
                <path d="M30.1301204,22.5314796 C29.8837435,22.4288827 29.8223298,22.2849822 29.8837435,22.0182545 L30.0892984,20.9919246 C30.150712,20.7254377 30.2531885,20.6229613 30.6022827,20.6844953 C30.9306649,20.7459089 31.423178,20.7868513 31.6486021,20.7868513 C32.8803665,20.7868513 33.2908743,20.1711497 33.2908743,18.3859403 L33.2908743,7.54944817 C33.2908743,7.32342199 33.3934712,7.22118639 33.6397277,7.22118639 L35.4047068,7.22118639 C35.6508429,7.22118639 35.7534398,7.32342199 35.7534398,7.54944817 L35.7534398,17.9341288 C35.7534398,19.802066 35.4047068,21.0329874 34.747822,21.7924691 C34.0909372,22.5314796 33.1056702,22.8392702 31.9566335,22.8392702 C31.2795183,22.8392702 30.5610995,22.7163225 30.1301204,22.5314796" id="Path" fill="#EC631C"/>
                <path d="M2.19005759,18.2549246 L0.216994764,18.2549246 C0.0976596859,18.2549246 -2.91100477e-13,18.1572649 -2.91100477e-13,18.0380503 L-2.91100477e-13,10.7365738 C-2.91100477e-13,10.6173592 0.0976596859,10.5194586 0.216994764,10.5194586 L2.19005759,10.5194586 C2.30963351,10.5194586 2.40705236,10.6173592 2.40705236,10.7365738 L2.40705236,18.0380503 C2.40705236,18.1573853 2.30963351,18.2549246 2.19005759,18.2549246" id="Path" fill="#61A6DA"/>
                <path d="M37.3035916,13.0005686 C37.3035916,9.51143246 39.3561309,7.21275707 42.3526335,7.21275707 C45.4107906,7.21275707 46.9911675,9.55261571 46.9911675,12.7338408 C46.9911675,13.5342649 46.8476283,13.7395791 46.5601885,13.7395791 L39.869356,13.7395791 C40.0951414,15.4636157 41.0187539,16.3255738 42.8453874,16.3255738 C43.6868743,16.3255738 44.7130838,16.0587257 45.5545707,15.689401 C45.8214188,15.5662126 45.9855497,15.6483382 46.088267,15.8945948 L46.4986545,16.900333 C46.6013717,17.1876524 46.5809005,17.3519037 46.3140524,17.4954429 C45.3083141,18.0700817 43.9537225,18.4601183 42.496534,18.4601183 C38.9662147,18.4598775 37.3035916,16.1407309 37.3035916,13.0005686 Z M39.8897068,11.8922335 L44.5077696,11.8922335 C44.4667068,10.5376419 43.7073455,9.32670995 42.3527539,9.32670995 C40.9365079,9.32670995 40.0950209,10.3939822 39.8897068,11.8922335 Z" id="Shape" fill="#EC631C"/>
                <path d="M21.7050157,13.062223 C21.7050157,9.28576754 23.6137749,7.21275707 26.9181885,7.21275707 C30.0174084,7.21275707 31.7619162,9.20364188 31.7619162,12.6106524 C31.7619162,16.3871079 29.8530366,18.4599979 26.5487435,18.4599979 C23.449644,18.4598775 21.7050157,16.4691131 21.7050157,13.062223 Z M29.2168639,12.754312 C29.2168639,10.8044901 28.5805707,9.34730157 26.856534,9.34730157 C25.214623,9.34730157 24.2499476,10.5582335 24.2499476,12.9185634 C24.2499476,14.8682649 24.8862408,16.3254534 26.6102775,16.3254534 C28.2521885,16.3254534 29.2168639,15.1145215 29.2168639,12.754312 Z" id="Shape" fill="#EC631C"/>
                <path d="M0.53829267,6.1488 C0.59929267,6.1488 0.62979267,6.1183 0.62979267,6.0573 L0.62979267,4.4957 C0.81889267,4.6238 1.11779267,4.7275 1.39839267,4.7275 C2.13649267,4.7275 2.81359267,4.1663 2.81359267,2.9646 C2.81359267,2.4583 2.66719267,2.0008 2.36829267,1.708 C2.17309267,1.5128 1.88639267,1.3908 1.55089267,1.3908 C1.16659267,1.3908 0.83719267,1.5738 0.62979267,1.8361 C0.62979267,1.7629 0.61149267,1.5921 0.60539267,1.5372 C0.59929267,1.4762 0.56879267,1.4518 0.50169267,1.4518 L0.25769267,1.4518 C0.19669267,1.4518 0.16619267,1.4823 0.16619267,1.5372 C0.17839267,1.8544 0.18449267,2.2753 0.18449267,2.745 L0.18449267,6.0573 C0.18449267,6.1183 0.21499267,6.1488 0.27599267,6.1488 L0.53829267,6.1488 Z M1.36789267,4.3188 C1.08119267,4.3188 0.80669267,4.2151 0.62979267,4.0809 L0.62979267,3.1415 C0.62979267,2.4461 0.66639267,2.2448 0.83719267,2.0801 C0.99579267,1.9276 1.23979267,1.8361 1.51429267,1.8361 C2.05109267,1.8361 2.34389267,2.196 2.34389267,3.0134 C2.34389267,3.7942 1.95959267,4.3188 1.36789267,4.3188 Z M4.69048744,4.7336 C5.10528744,4.7336 5.45298744,4.5384 5.64818744,4.1968 C5.66038744,4.3493 5.69088744,4.4957 5.71528744,4.5933 C5.72748744,4.6482 5.75798744,4.6726 5.82508744,4.6726 L6.05688744,4.6726 C6.13008744,4.6726 6.14838744,4.6421 6.13618744,4.5811 C6.08128744,4.2578 6.04468744,3.7271 6.04468744,3.2818 L6.04468744,2.5315 C6.04468744,2.2265 6.05688744,1.8605 6.07518744,1.5311 C6.07518744,1.4762 6.05688744,1.4518 5.98368744,1.4518 L5.76408744,1.4518 C5.71528744,1.4518 5.68478744,1.464 5.67258744,1.5189 C5.66038744,1.5677 5.64818744,1.7202 5.64208744,1.7995 C5.44078744,1.5494 5.11748744,1.3908 4.76368744,1.3908 C4.00118744,1.3908 3.37898744,2.0435 3.37898744,3.1171 C3.37898744,3.9467 3.76328744,4.7336 4.69048744,4.7336 Z M4.74538744,4.331 C4.12928744,4.331 3.84868744,3.7942 3.84868744,3.0805 C3.84868744,2.4217 4.12318744,1.7934 4.80028744,1.7934 C5.11138744,1.7934 5.45298744,1.9886 5.59938744,2.2204 L5.59938744,3.2208 C5.59938744,3.5868 5.51398744,3.8552 5.37368744,4.0321 C5.22118744,4.2273 4.97718744,4.331 4.74538744,4.331 Z M8.1289822,6.2098 C8.6291822,6.2098 8.9646822,6.0817 9.1903822,5.856 C9.4465822,5.5998 9.5563822,5.2277 9.5563822,4.7702 L9.5563822,1.5372 C9.5563822,1.4823 9.5258822,1.4518 9.4648822,1.4518 L9.2025822,1.4518 C9.1415822,1.4518 9.1110822,1.4823 9.1110822,1.5372 L9.1110822,2.7023 C9.1110822,3.0988 9.0988822,3.3794 9.0866822,3.5624 C9.0622822,3.8674 8.9829822,3.9711 8.9280822,4.0321 C8.7694822,4.1968 8.4522822,4.2944 8.2082822,4.2944 C7.9154822,4.2944 7.7080822,4.2273 7.5799822,4.0748 C7.4152822,3.8796 7.3969822,3.6112 7.3969822,3.0927 L7.3969822,1.5372 C7.3969822,1.4823 7.3664822,1.4518 7.3054822,1.4518 L7.0431822,1.4518 C6.9821822,1.4518 6.9516822,1.4823 6.9516822,1.5372 L6.9516822,3.355 C6.9516822,3.8674 7.0370822,4.1846 7.2627822,4.4103 C7.4762822,4.6177 7.7934822,4.7336 8.1167822,4.7336 C8.5010822,4.7336 8.8975822,4.5628 9.1110822,4.3127 L9.1110822,4.7275 C9.1110822,5.0874 9.0439822,5.3619 8.8731822,5.5571 C8.7267822,5.7218 8.4888822,5.8194 8.1411822,5.8194 C7.8849822,5.8194 7.6958822,5.795 7.4762822,5.7523 C7.3847822,5.734 7.3664822,5.7523 7.3481822,5.8255 L7.3115822,6.0024 C7.2993822,6.0573 7.3054822,6.0939 7.3847822,6.1183 C7.5311822,6.161 7.8605822,6.2098 8.1289822,6.2098 Z M13.1637717,4.7336 C14.0421717,4.7336 14.6643717,4.1541 14.6643717,2.9829 C14.6643717,2.0862 14.2495717,1.3908 13.2918717,1.3908 C12.4134717,1.3908 11.7912717,1.9703 11.7912717,3.1415 C11.7912717,4.0382 12.2060717,4.7336 13.1637717,4.7336 Z M13.1881717,4.331 C12.4378717,4.331 12.2609717,3.6295 12.2609717,3.0927 C12.2609717,2.1289 12.7733717,1.7934 13.2674717,1.7934 C14.0177717,1.7934 14.1946717,2.4949 14.1946717,3.0317 C14.1946717,3.9955 13.6822717,4.331 13.1881717,4.331 Z M15.7848665,4.6726 C15.8458665,4.6726 15.8763665,4.6421 15.8763665,4.5872 L15.8763665,3.4831 C15.8763665,3.0866 15.8824665,2.7755 15.9007665,2.562 C15.9190665,2.3363 15.9617665,2.2021 16.0593665,2.0923 C16.2179665,1.9276 16.5229665,1.83 16.7913665,1.83 C17.0841665,1.83 17.3037665,1.9032 17.4318665,2.0496 C17.6026665,2.2448 17.6148665,2.5132 17.6148665,3.0317 L17.6148665,4.5872 C17.6148665,4.6421 17.6453665,4.6726 17.7063665,4.6726 L17.9686665,4.6726 C18.0296665,4.6726 18.0601665,4.6421 18.0601665,4.5872 L18.0601665,2.7694 C18.0601665,2.2631 17.9747665,1.9398 17.7490665,1.7141 C17.5355665,1.5067 17.2183665,1.3908 16.8767665,1.3908 C16.4802665,1.3908 16.0837665,1.5738 15.8702665,1.8178 C15.8702665,1.7446 15.8580665,1.5921 15.8519665,1.5372 C15.8458665,1.4762 15.8153665,1.4518 15.7482665,1.4518 L15.5042665,1.4518 C15.4432665,1.4518 15.4127665,1.4823 15.4127665,1.5372 C15.4249665,1.8544 15.4310665,2.2753 15.4310665,2.745 L15.4310665,4.5872 C15.4310665,4.6421 15.4615665,4.6726 15.5225665,4.6726 L15.7848665,4.6726 Z M19.4185613,4.6726 C19.5039613,4.6726 19.6015613,4.6543 19.6442613,4.636 C19.6930613,4.6177 19.7052613,4.5994 19.7052613,4.5323 L19.7052613,4.4103 C19.7052613,4.3493 19.6808613,4.331 19.6198613,4.331 C19.4063613,4.331 19.3819613,4.2456 19.3819613,3.9772 L19.3819613,1.6043 C19.3819613,0.7808 19.3636613,0.2562 19.3392613,0.0671 C19.3331613,0.0183 19.3087613,2.71782596e-13 19.2538613,2.71782596e-13 L18.9793613,2.71782596e-13 C18.9183613,2.71782596e-13 18.9000613,0.0305 18.9000613,0.0854 C18.9000613,0.1952 18.9366613,0.4392 18.9366613,1.525 L18.9366613,3.8613 C18.9366613,4.1785 18.9488613,4.3493 19.0098613,4.4591 C19.0769613,4.5872 19.2172613,4.6726 19.4185613,4.6726 Z M20.776956,0.7808 C20.844056,0.7808 20.874556,0.7503 20.874556,0.6954 L20.874556,0.2623 C20.874556,0.2074 20.844056,0.1769 20.776956,0.1769 L20.362156,0.1769 C20.301156,0.1769 20.270656,0.2074 20.270656,0.2623 L20.270656,0.6954 C20.270656,0.7503 20.301156,0.7808 20.362156,0.7808 L20.776956,0.7808 Z M20.703756,4.6726 C20.764756,4.6726 20.795256,4.6421 20.795256,4.5872 L20.795256,1.5372 C20.795256,1.4823 20.764756,1.4518 20.703756,1.4518 L20.441456,1.4518 C20.380456,1.4518 20.349956,1.4823 20.349956,1.5372 L20.349956,4.5872 C20.349956,4.6421 20.380456,4.6726 20.441456,4.6726 L20.703756,4.6726 Z M22.0926508,4.6726 C22.1536508,4.6726 22.1841508,4.6421 22.1841508,4.5872 L22.1841508,3.4831 C22.1841508,3.0866 22.1902508,2.7755 22.2085508,2.562 C22.2268508,2.3363 22.2695508,2.2021 22.3671508,2.0923 C22.5257508,1.9276 22.8307508,1.83 23.0991508,1.83 C23.3919508,1.83 23.6115508,1.9032 23.7396508,2.0496 C23.9104508,2.2448 23.9226508,2.5132 23.9226508,3.0317 L23.9226508,4.5872 C23.9226508,4.6421 23.9531508,4.6726 24.0141508,4.6726 L24.2764508,4.6726 C24.3374508,4.6726 24.3679508,4.6421 24.3679508,4.5872 L24.3679508,2.7694 C24.3679508,2.2631 24.2825508,1.9398 24.0568508,1.7141 C23.8433508,1.5067 23.5261508,1.3908 23.1845508,1.3908 C22.7880508,1.3908 22.3915508,1.5738 22.1780508,1.8178 C22.1780508,1.7446 22.1658508,1.5921 22.1597508,1.5372 C22.1536508,1.4762 22.1231508,1.4518 22.0560508,1.4518 L21.8120508,1.4518 C21.7510508,1.4518 21.7205508,1.4823 21.7205508,1.5372 C21.7327508,1.8544 21.7388508,2.2753 21.7388508,2.745 L21.7388508,4.5872 C21.7388508,4.6421 21.7693508,4.6726 21.8303508,4.6726 L22.0926508,4.6726 Z M26.5498456,4.7336 C26.9646456,4.7336 27.3062456,4.6482 27.5929456,4.4774 C27.6539456,4.4408 27.6661456,4.4103 27.6417456,4.3493 L27.5624456,4.1602 C27.5319456,4.1053 27.5014456,4.0992 27.4465456,4.1236 C27.1537456,4.2639 26.8792456,4.3188 26.6474456,4.3188 C25.9337456,4.3188 25.5616456,3.9711 25.5494456,3.2269 L27.7210456,3.2269 C27.7881456,3.2269 27.8247456,3.172 27.8247456,3.0378 C27.8247456,2.0984 27.4038456,1.3908 26.5376456,1.3908 C25.6470456,1.3908 25.0797456,2.1167 25.0797456,3.1476 C25.0797456,4.1114 25.5494456,4.7336 26.5498456,4.7336 Z M27.3672456,2.8365 L25.5616456,2.8365 C25.6470456,2.1899 25.9825456,1.8056 26.5437456,1.8056 C27.1171456,1.8056 27.3672456,2.3546 27.3672456,2.8365 Z M31.1088351,4.6726 C31.2064351,4.6726 31.2430351,4.6421 31.2613351,4.575 L31.6639351,3.0012 L31.9323351,1.9154 C31.9933351,2.1899 32.0726351,2.562 32.1885351,2.9951 L32.6094351,4.575 C32.6277351,4.6421 32.6643351,4.6726 32.7619351,4.6726 L33.0364351,4.6726 C33.1340351,4.6726 33.1645351,4.6482 33.1889351,4.575 C33.6281351,3.3184 33.9026351,2.3729 34.0673351,1.5677 C34.0856351,1.4762 34.0734351,1.4518 33.9941351,1.4518 L33.7623351,1.4518 C33.6830351,1.4518 33.6586351,1.4701 33.6464351,1.5311 C33.5000351,2.2753 33.2682351,3.0927 32.9205351,4.1053 C32.7802351,3.5929 32.6582351,3.1781 32.5423351,2.7572 L32.2190351,1.5555 C32.1946351,1.4762 32.1763351,1.4518 32.0665351,1.4518 L31.7859351,1.4518 C31.6700351,1.4518 31.6517351,1.4823 31.6334351,1.5555 L31.2186351,3.1598 L30.9624351,4.1602 C30.8587351,3.7698 30.7794351,3.4709 30.6879351,3.1476 L30.2304351,1.5311 C30.2121351,1.464 30.1694351,1.4518 30.1023351,1.4518 L29.8339351,1.4518 C29.7607351,1.4518 29.7424351,1.4884 29.7607351,1.5494 L30.6757351,4.575 C30.6940351,4.6421 30.7306351,4.6726 30.8282351,4.6726 L31.1088351,4.6726 Z M35.1390299,0.7808 C35.2061299,0.7808 35.2366299,0.7503 35.2366299,0.6954 L35.2366299,0.2623 C35.2366299,0.2074 35.2061299,0.1769 35.1390299,0.1769 L34.7242299,0.1769 C34.6632299,0.1769 34.6327299,0.2074 34.6327299,0.2623 L34.6327299,0.6954 C34.6327299,0.7503 34.6632299,0.7808 34.7242299,0.7808 L35.1390299,0.7808 Z M35.0658299,4.6726 C35.1268299,4.6726 35.1573299,4.6421 35.1573299,4.5872 L35.1573299,1.5372 C35.1573299,1.4823 35.1268299,1.4518 35.0658299,1.4518 L34.8035299,1.4518 C34.7425299,1.4518 34.7120299,1.4823 34.7120299,1.5372 L34.7120299,4.5872 C34.7120299,4.6421 34.7425299,4.6726 34.8035299,4.6726 L35.0658299,4.6726 Z M37.0525246,4.7336 C37.3209246,4.7336 37.6076246,4.6482 37.7235246,4.575 C37.7662246,4.5445 37.8028246,4.5201 37.7723246,4.4347 L37.7296246,4.3127 C37.7052246,4.2456 37.6808246,4.2212 37.5954246,4.2517 C37.4490246,4.3066 37.2477246,4.3432 37.1135246,4.3432 C36.9244246,4.3432 36.8146246,4.3005 36.7475246,4.2212 C36.6621246,4.1297 36.6499246,3.9589 36.6499246,3.7027 L36.6499246,1.8178 L37.4429246,1.8178 C37.4978246,1.8178 37.5283246,1.7873 37.5283246,1.7263 L37.5283246,1.5433 C37.5283246,1.4823 37.4978246,1.4518 37.4429246,1.4518 L36.6499246,1.4518 L36.6499246,0.5917 C36.6499246,0.5368 36.6194246,0.5063 36.5584246,0.5063 L36.2961246,0.5063 C36.2351246,0.5063 36.2046246,0.5368 36.2046246,0.5917 L36.2046246,1.4518 L35.7349246,1.4518 C35.6800246,1.4518 35.6495246,1.4823 35.6495246,1.5433 L35.6495246,1.7263 C35.6495246,1.7873 35.6800246,1.8178 35.7349246,1.8178 L36.2046246,1.8178 L36.2046246,3.7454 C36.2046246,4.1602 36.2534246,4.3798 36.4303246,4.5445 C36.5523246,4.6604 36.7658246,4.7336 37.0525246,4.7336 Z M38.6549194,4.6726 C38.7159194,4.6726 38.7464194,4.6421 38.7464194,4.5872 L38.7464194,3.4831 C38.7464194,3.0866 38.7525194,2.7755 38.7708194,2.562 C38.7891194,2.3363 38.8318194,2.2021 38.9294194,2.0923 C39.0880194,1.9276 39.3930194,1.83 39.6614194,1.83 C39.9542194,1.83 40.1738194,1.9032 40.3019194,2.0496 C40.4727194,2.2448 40.4849194,2.5132 40.4849194,3.0317 L40.4849194,4.5872 C40.4849194,4.6421 40.5154194,4.6726 40.5764194,4.6726 L40.8387194,4.6726 C40.8997194,4.6726 40.9302194,4.6421 40.9302194,4.5872 L40.9302194,2.7694 C40.9302194,2.2631 40.8448194,1.9398 40.6191194,1.7141 C40.4056194,1.5067 40.0884194,1.3908 39.7468194,1.3908 C39.3503194,1.3908 38.9599194,1.5738 38.7464194,1.8117 L38.7464194,0.0854 C38.7464194,0.0305 38.7159194,2.71782596e-13 38.6549194,2.71782596e-13 L38.3926194,2.71782596e-13 C38.3316194,2.71782596e-13 38.3011194,0.0305 38.3011194,0.0854 L38.3011194,4.5872 C38.3011194,4.6421 38.3316194,4.6726 38.3926194,4.6726 L38.6549194,4.6726 Z" id="payonlinewith" fill="#000000"/>
                <path d="M2.19631937,9.41786702 L0.223376963,9.41786702 C0.104041885,9.41786702 0.00638219895,9.32032775 0.00638219895,9.20087225 L0.00638219895,7.58063665 C0.00638219895,7.46118115 0.104041885,7.36352147 0.223376963,7.36352147 L2.19643979,7.36352147 C2.31589529,7.36352147 2.41343455,7.46118115 2.41343455,7.58063665 L2.41343455,9.20087225 C2.41331414,9.32032775 2.31577487,9.41786702 2.19631937,9.41786702" id="Path" fill="#61A6DA"/>
                <path d="M35.5366859,9.27517068 L32.3382408,9.27517068 C32.2189058,9.27517068 32.1212461,9.17763141 32.1212461,9.05817592 L32.1212461,7.43794031 C32.1212461,7.31848482 32.2189058,7.22082513 32.3382408,7.22082513 L35.5366859,7.22082513 C35.6560209,7.22082513 35.7536806,7.31848482 35.7536806,7.43794031 L35.7536806,9.05817592 C35.7535602,9.17763141 35.6560209,9.27517068 35.5366859,9.27517068" id="Path" fill="#EC631C"/>
            </g>
        </g>
    </g>
</svg>